REM MD5 366458d13347a02f281d5aa57ee6e71a
FILE "Tekken 2 (Japan).bin" BINARY
  TRACK 01 MODE2/2352
    INDEX 01 00:00:00
  TRACK 02 AUDIO
    INDEX 00 67:49:62
    INDEX 01 67:51:62
  TRACK 03 AUDIO
    INDEX 00 70:20:27
    INDEX 01 70:22:27
REM LEADOUT 70:56:27
